<svg width="314" height="679" viewBox="0 0 314 679" fill="none" xmlns="http://www.w3.org/2000/svg">
<path d="M44.1041 0.11114C38.5672 0.279861 33.3534 0.81853 29.4465 1.62509C18.0085 3.98677 9.13486 10.7403 4.50288 20.6092C2.37063 25.1521 1.2507 29.5688 0.431173 36.6674C0.121303 39.3507 0.0885881 63.2153 0.0211002 336.386C-0.0311619 547.683 0.0118411 634.43 0.170479 637.499C0.671907 647.191 2.18339 653.989 5.04422 659.421C10.7371 670.229 20.5128 676.41 34.6393 678.132C40.3927 678.834 40.6087 678.836 151.612 678.914C263.098 678.994 271.633 678.943 277.946 678.249C289.007 677.019 296.159 673.929 302.447 667.661C308.634 661.493 311.754 654.32 313.015 643.357C313.192 641.82 313.428 638.162 313.537 635.23C313.811 627.971 313.813 51.0133 313.54 43.7569C313.326 38.0939 312.976 34.3642 312.317 30.7303C309.496 15.1529 299.182 4.63037 283.707 1.53765C276.907 0.178628 270.623 -0.0682794 244.922 0.0142287L225.169 0.0776016L224.311 0.535821C223.84 0.787872 223.26 1.26872 223.021 1.60411C222.128 2.85737 221.962 3.63163 221.754 7.45355C221.536 11.481 221.207 13.4843 220.412 15.5994C218.523 20.6291 213.816 24.8813 208.565 26.302C207.738 26.5253 206.104 26.8041 204.932 26.9214C201.855 27.2292 111.422 27.2144 108.565 26.9057C102.246 26.2224 97.4737 23.2597 94.4244 18.1271C92.764 15.3322 92.0665 12.3705 91.8453 7.17619C91.6609 2.85017 91.1558 1.59608 89.1647 0.521624L88.3417 0.0776016L67.1488 0.0660792C55.4927 0.0599066 45.1226 0.0800706 44.1041 0.11114Z" fill="white"/>
</svg>
