<svg width="1135" height="734" viewBox="0 0 1135 734" fill="none" xmlns="http://www.w3.org/2000/svg">
<path d="M16.9694 0.222127C11.4732 0.359376 9.5935 0.501616 8.51588 0.861236C3.60064 2.50185 1.06126 5.87486 0.565969 11.4208C0.419626 13.0592 0.250001 163.548 0.157706 373.912L0 733.602H567.419H1134.84L1134.68 373.912C1134.59 161.947 1134.42 13.0653 1134.27 11.4053C1133.82 6.41831 1131.98 3.55632 1127.92 1.54194L1125.53 0.358821L1060.79 0.150037C1025.19 0.0352468 913.769 -0.0271392 813.2 0.0114015L630.349 0.081551C629.913 0.0645445 629.555 0.19024 629.274 0.458639C628.993 0.727037 628.839 1.11374 628.811 1.61874L628.617 9.79519C628.403 18.7854 628.356 19.0283 626.624 20.0767C625.787 20.5846 624.093 20.5996 567.529 20.5996C503.612 20.5996 508.288 20.728 507.326 18.9457C506.95 18.2453 506.844 16.7791 506.708 10.202C506.534 1.73603 506.437 1.15015 505.095 0.458639C504.48 0.141442 466.145 0.0787783 264.2 0.0635284C132.111 0.0535467 20.8566 0.125083 16.9694 0.222127Z" fill="white"/>
</svg>
